<svg width="15" height="15" viewBox="0 0 15 15" fill="none" xmlns="http://www.w3.org/2000/svg">
<g id="ep:arrow-down">
<path id="Vector" d="M12.1861 4.99311L7.50045 9.56061L2.81483 4.99311C2.73111 4.91134 2.61873 4.86556 2.5017 4.86556C2.38468 4.86556 2.27229 4.91134 2.18858 4.99311C2.14804 5.03283 2.11584 5.08023 2.09385 5.13255C2.07187 5.18487 2.06055 5.24105 2.06055 5.2978C2.06055 5.35455 2.07187 5.41073 2.09385 5.46305C2.11584 5.51536 2.14804 5.56277 2.18858 5.60249L7.17327 10.4625C7.2608 10.5478 7.37821 10.5956 7.50045 10.5956C7.6227 10.5956 7.7401 10.5478 7.82764 10.4625L12.8123 5.60342C12.8532 5.56368 12.8856 5.51616 12.9078 5.46366C12.9299 5.41117 12.9413 5.35477 12.9413 5.2978C12.9413 5.24082 12.9299 5.18442 12.9078 5.13193C12.8856 5.07944 12.8532 5.03192 12.8123 4.99217C12.7286 4.9104 12.6162 4.86462 12.4992 4.86462C12.3822 4.86462 12.2698 4.9104 12.1861 4.99217V4.99311Z" fill="#111111"/>
</g>
</svg>
