<svg width="40" height="40" viewBox="0 0 40 40" fill="none" xmlns="http://www.w3.org/2000/svg">
<g id="clarity:user-line" clip-path="url(#clip0_330_379)">
<path id="Vector" d="M20.0004 18.8889C21.5387 18.8889 23.0425 18.4327 24.3215 17.5781C25.6006 16.7235 26.5975 15.5087 27.1862 14.0875C27.7748 12.6663 27.9289 11.1025 27.6288 9.59374C27.3287 8.085 26.5879 6.69913 25.5002 5.61139C24.4124 4.52365 23.0265 3.78289 21.5178 3.48278C20.0091 3.18267 18.4452 3.3367 17.024 3.92538C15.6028 4.51406 14.3881 5.51096 13.5334 6.79001C12.6788 8.06906 12.2227 9.57281 12.2227 11.1111C12.2227 13.1739 13.0421 15.1522 14.5007 16.6108C15.9593 18.0694 17.9376 18.8889 20.0004 18.8889ZM20.0004 5.55555C21.0992 5.55555 22.1733 5.88138 23.0869 6.49183C24.0005 7.10229 24.7126 7.96995 25.1331 8.98509C25.5536 10.0002 25.6636 11.1173 25.4492 12.1949C25.2349 13.2726 24.7058 14.2625 23.9288 15.0395C23.1518 15.8164 22.1619 16.3456 21.0843 16.5599C20.0066 16.7743 18.8896 16.6643 17.8744 16.2438C16.8593 15.8233 15.9916 15.1112 15.3812 14.1976C14.7707 13.284 14.4449 12.2099 14.4449 11.1111C14.4449 9.63768 15.0302 8.22461 16.0721 7.18274C17.1139 6.14087 18.527 5.55555 20.0004 5.55555Z" fill="#111111"/>
<path id="Vector_2" d="M33.8557 27.0778C32.0738 25.1945 29.9265 23.6943 27.5452 22.6691C25.1638 21.6439 22.5983 21.1151 20.0057 21.1151C17.413 21.1151 14.8475 21.6439 12.4662 22.6691C10.0848 23.6943 7.93755 25.1945 6.15567 27.0778C5.76935 27.4904 5.55479 28.0348 5.55567 28.6V34.4444C5.55567 35.0338 5.78979 35.599 6.20654 36.0158C6.62329 36.4325 7.18852 36.6667 7.77789 36.6667H32.2223C32.8117 36.6667 33.3769 36.4325 33.7937 36.0158C34.2104 35.599 34.4446 35.0338 34.4446 34.4444V28.6C34.4485 28.0363 34.2379 27.4921 33.8557 27.0778ZM32.2223 34.4444H7.77789V28.5889C9.35259 26.9308 11.2482 25.6104 13.3494 24.7081C15.4506 23.8058 17.7134 23.3405 20.0001 23.3405C22.2868 23.3405 24.5496 23.8058 26.6508 24.7081C28.752 25.6104 30.6476 26.9308 32.2223 28.5889V34.4444Z" fill="#111111"/>
</g>
<defs>
<clipPath id="clip0_330_379">
<rect width="40" height="40" fill="white"/>
</clipPath>
</defs>
</svg>
