<svg width="37" height="40" viewBox="0 0 37 40" fill="none" xmlns="http://www.w3.org/2000/svg">
<g id="ph:ticket">
<path id="Vector" d="M32.8361 16.325C33.3584 16.2101 33.828 15.9036 34.1654 15.4575C34.5028 15.0113 34.6872 14.4528 34.6875 13.8766V10C34.6875 9.33696 34.4439 8.70107 34.0102 8.23223C33.5765 7.76339 32.9883 7.5 32.375 7.5H4.625C4.01169 7.5 3.4235 7.76339 2.98982 8.23223C2.55614 8.70107 2.3125 9.33696 2.3125 10V13.8766C2.3128 14.4528 2.49724 15.0113 2.83462 15.4575C3.172 15.9036 3.6416 16.2101 4.16395 16.325C4.945 16.5001 5.64637 16.9609 6.1499 17.6297C6.65342 18.2985 6.92834 19.1345 6.92834 19.9969C6.92834 20.8592 6.65342 21.6952 6.1499 22.364C5.64637 23.0329 4.945 23.4936 4.16395 23.6687C3.64062 23.7839 3.17028 24.0912 2.83279 24.5387C2.4953 24.9861 2.31146 25.5461 2.3125 26.1234V30C2.3125 30.663 2.55614 31.2989 2.98982 31.7678C3.4235 32.2366 4.01169 32.5 4.625 32.5H32.375C32.9883 32.5 33.5765 32.2366 34.0102 31.7678C34.4439 31.2989 34.6875 30.663 34.6875 30V26.1234C34.6872 25.5472 34.5028 24.9887 34.1654 24.5425C33.828 24.0964 33.3584 23.7899 32.8361 23.675C32.055 23.4999 31.3536 23.0391 30.8501 22.3703C30.3466 21.7015 30.0717 20.8655 30.0717 20.0031C30.0717 19.1408 30.3466 18.3048 30.8501 17.636C31.3536 16.9671 32.055 16.5064 32.8361 16.3312V16.325ZM4.625 26.125C5.93112 25.8374 7.10518 25.0706 7.94841 23.9546C8.79164 22.8386 9.25225 21.4418 9.25225 20.0008C9.25225 18.5598 8.79164 17.163 7.94841 16.047C7.10518 14.9309 5.93112 14.1642 4.625 13.8766V10H12.7188V30H4.625V26.125ZM32.375 26.125V30H15.0313V10H32.375V13.875C31.0689 14.1626 29.8948 14.9294 29.0516 16.0454C28.2084 17.1614 27.7478 18.5582 27.7478 19.9992C27.7478 21.4402 28.2084 22.837 29.0516 23.953C29.8948 25.0691 31.0689 25.8358 32.375 26.1234V26.125Z" fill="#111111"/>
</g>
</svg>
