<svg width="16" height="16" viewBox="0 0 16 16" fill="none" xmlns="http://www.w3.org/2000/svg">
<path id="Vector" d="M1.95313 0.976563C1.95313 1.16971 1.89585 1.35852 1.78855 1.51911C1.68124 1.67971 1.52872 1.80488 1.35028 1.87879C1.17183 1.9527 0.97548 1.97204 0.786045 1.93436C0.59661 1.89668 0.422604 1.80367 0.286029 1.6671C0.149454 1.53052 0.0564457 1.35652 0.0187648 1.16708C-0.0189161 0.977647 0.000423129 0.781292 0.0743368 0.602849C0.148251 0.424405 0.273419 0.271887 0.434014 0.164581C0.594609 0.0572748 0.783417 5.2788e-07 0.976563 5.2788e-07C1.23556 5.2788e-07 1.48396 0.102888 1.6671 0.286029C1.85024 0.46917 1.95313 0.717563 1.95313 0.976563ZM7.61719 5.2788e-07C7.42404 5.2788e-07 7.23523 0.0572748 7.07464 0.164581C6.91404 0.271887 6.78888 0.424405 6.71496 0.602849C6.64105 0.781292 6.62171 0.977647 6.65939 1.16708C6.69707 1.35652 6.79008 1.53052 6.92665 1.6671C7.06323 1.80367 7.23724 1.89668 7.42667 1.93436C7.6161 1.97204 7.81246 1.9527 7.9909 1.87879C8.16935 1.80488 8.32186 1.67971 8.42917 1.51911C8.53648 1.35852 8.59375 1.16971 8.59375 0.976563C8.59375 0.717563 8.49086 0.46917 8.30772 0.286029C8.12458 0.102888 7.87619 5.2788e-07 7.61719 5.2788e-07ZM14.2578 1.95313C14.451 1.95313 14.6398 1.89585 14.8004 1.78855C14.961 1.68124 15.0861 1.52872 15.16 1.35028C15.234 1.17183 15.2533 0.97548 15.2156 0.786045C15.1779 0.59661 15.0849 0.422604 14.9483 0.286029C14.8118 0.149454 14.6378 0.0564457 14.4483 0.0187648C14.2589 -0.0189161 14.0625 0.000423129 13.8841 0.0743368C13.7057 0.148251 13.5531 0.273419 13.4458 0.434014C13.3385 0.594609 13.2812 0.783417 13.2812 0.976563C13.2812 1.23556 13.3841 1.48396 13.5673 1.6671C13.7504 1.85024 13.9988 1.95313 14.2578 1.95313ZM0.976563 6.64063C0.783417 6.64063 0.594609 6.6979 0.434014 6.80521C0.273419 6.91251 0.148251 7.06503 0.0743368 7.24347C0.000423129 7.42192 -0.0189161 7.61827 0.0187648 7.80771C0.0564457 7.99714 0.149454 8.17115 0.286029 8.30772C0.422604 8.4443 0.59661 8.5373 0.786045 8.57499C0.97548 8.61267 1.17183 8.59333 1.35028 8.51941C1.52872 8.4455 1.68124 8.32033 1.78855 8.15974C1.89585 7.99914 1.95313 7.81033 1.95313 7.61719C1.95313 7.35819 1.85024 7.1098 1.6671 6.92665C1.48396 6.74351 1.23556 6.64063 0.976563 6.64063ZM7.61719 6.64063C7.42404 6.64063 7.23523 6.6979 7.07464 6.80521C6.91404 6.91251 6.78888 7.06503 6.71496 7.24347C6.64105 7.42192 6.62171 7.61827 6.65939 7.80771C6.69707 7.99714 6.79008 8.17115 6.92665 8.30772C7.06323 8.4443 7.23724 8.5373 7.42667 8.57499C7.6161 8.61267 7.81246 8.59333 7.9909 8.51941C8.16935 8.4455 8.32186 8.32033 8.42917 8.15974C8.53648 7.99914 8.59375 7.81033 8.59375 7.61719C8.59375 7.35819 8.49086 7.1098 8.30772 6.92665C8.12458 6.74351 7.87619 6.64063 7.61719 6.64063ZM14.2578 6.64063C14.0647 6.64063 13.8759 6.6979 13.7153 6.80521C13.5547 6.91251 13.4295 7.06503 13.3556 7.24347C13.2817 7.42192 13.2623 7.61827 13.3 7.80771C13.3377 7.99714 13.4307 8.17115 13.5673 8.30772C13.7039 8.4443 13.8779 8.5373 14.0673 8.57499C14.2567 8.61267 14.4531 8.59333 14.6315 8.51941C14.81 8.4455 14.9625 8.32033 15.0698 8.15974C15.1771 7.99914 15.2344 7.81033 15.2344 7.61719C15.2344 7.35819 15.1315 7.1098 14.9483 6.92665C14.7652 6.74351 14.5168 6.64063 14.2578 6.64063ZM0.976563 13.2812C0.783417 13.2812 0.594609 13.3385 0.434014 13.4458C0.273419 13.5531 0.148251 13.7057 0.0743368 13.8841C0.000423129 14.0625 -0.0189161 14.2589 0.0187648 14.4483C0.0564457 14.6378 0.149454 14.8118 0.286029 14.9483C0.422604 15.0849 0.59661 15.1779 0.786045 15.2156C0.97548 15.2533 1.17183 15.234 1.35028 15.16C1.52872 15.0861 1.68124 14.961 1.78855 14.8004C1.89585 14.6398 1.95313 14.451 1.95313 14.2578C1.95313 13.9988 1.85024 13.7504 1.6671 13.5673C1.48396 13.3841 1.23556 13.2812 0.976563 13.2812ZM7.61719 13.2812C7.42404 13.2812 7.23523 13.3385 7.07464 13.4458C6.91404 13.5531 6.78888 13.7057 6.71496 13.8841C6.64105 14.0625 6.62171 14.2589 6.65939 14.4483C6.69707 14.6378 6.79008 14.8118 6.92665 14.9483C7.06323 15.0849 7.23724 15.1779 7.42667 15.2156C7.6161 15.2533 7.81246 15.234 7.9909 15.16C8.16935 15.0861 8.32186 14.961 8.42917 14.8004C8.53648 14.6398 8.59375 14.451 8.59375 14.2578C8.59375 13.9988 8.49086 13.7504 8.30772 13.5673C8.12458 13.3841 7.87619 13.2812 7.61719 13.2812ZM14.2578 13.2812C14.0647 13.2812 13.8759 13.3385 13.7153 13.4458C13.5547 13.5531 13.4295 13.7057 13.3556 13.8841C13.2817 14.0625 13.2623 14.2589 13.3 14.4483C13.3377 14.6378 13.4307 14.8118 13.5673 14.9483C13.7039 15.0849 13.8779 15.1779 14.0673 15.2156C14.2567 15.2533 14.4531 15.234 14.6315 15.16C14.81 15.0861 14.9625 14.961 15.0698 14.8004C15.1771 14.6398 15.2344 14.451 15.2344 14.2578C15.2344 13.9988 15.1315 13.7504 14.9483 13.5673C14.7652 13.3841 14.5168 13.2812 14.2578 13.2812Z" fill="#111111"/>
</svg>
