<svg width="22" height="22" viewBox="0 0 22 22" fill="none" xmlns="http://www.w3.org/2000/svg">
<g id="Group">
<path id="Vector" d="M3.5 18V9C3.5 7.4087 4.29018 5.88258 5.6967 4.75736C7.10322 3.63214 9.01088 3 11 3C12.9891 3 14.8968 3.63214 16.3033 4.75736C17.7098 5.88258 18.5 7.4087 18.5 9V18M3.5 18H18.5M3.5 18H1M18.5 18H21M9.75 21H12.25" stroke="white" stroke-width="2" stroke-linecap="round" stroke-linejoin="round"/>
<path id="Vector_2" d="M11 3C11.6904 3 12.25 2.55228 12.25 2C12.25 1.44772 11.6904 1 11 1C10.3096 1 9.75 1.44772 9.75 2C9.75 2.55228 10.3096 3 11 3Z" stroke="white" stroke-width="2"/>
</g>
</svg>
