<svg width="40" height="40" viewBox="0 0 40 40" fill="none" xmlns="http://www.w3.org/2000/svg">
<g id="Setting icon">
<path id="Vector" d="M33.1671 21.1C32.8999 20.7958 32.7526 20.4048 32.7526 20C32.7526 19.5951 32.8999 19.2041 33.1671 18.9L35.3005 16.5C35.5356 16.2378 35.6815 15.9078 35.7175 15.5575C35.7534 15.2072 35.6774 14.8545 35.5005 14.55L32.1671 8.78332C31.992 8.47919 31.7253 8.23812 31.4051 8.09447C31.0848 7.95081 30.7274 7.91192 30.3838 7.98332L27.2505 8.61665C26.8518 8.69904 26.4367 8.63264 26.0836 8.42999C25.7305 8.22734 25.4638 7.90246 25.3338 7.51666L24.3171 4.46665C24.2053 4.13562 23.9923 3.8481 23.7082 3.64472C23.4241 3.44135 23.0832 3.33242 22.7338 3.33332H16.0671C15.7037 3.31435 15.344 3.41487 15.0431 3.61951C14.7421 3.82416 14.5164 4.12169 14.4005 4.46665L13.4671 7.51666C13.3371 7.90246 13.0704 8.22734 12.7173 8.42999C12.3642 8.63264 11.9492 8.69904 11.5505 8.61665L8.33381 7.98332C8.00806 7.93729 7.67598 7.98869 7.37939 8.13105C7.0828 8.27342 6.83498 8.50037 6.66714 8.78332L3.33381 14.55C3.15241 14.8511 3.07085 15.2018 3.10078 15.552C3.13072 15.9023 3.27062 16.2341 3.50048 16.5L5.61714 18.9C5.88434 19.2041 6.0317 19.5951 6.0317 20C6.0317 20.4048 5.88434 20.7958 5.61714 21.1L3.50048 23.5C3.27062 23.7659 3.13072 24.0977 3.10078 24.4479C3.07085 24.7982 3.15241 25.1489 3.33381 25.45L6.66714 31.2167C6.84231 31.5208 7.10901 31.7619 7.42923 31.9055C7.74945 32.0492 8.10685 32.0881 8.45048 32.0167L11.5838 31.3833C11.9825 31.3009 12.3976 31.3673 12.7507 31.57C13.1038 31.7726 13.3705 32.0975 13.5005 32.4833L14.5171 35.5333C14.6331 35.8783 14.8588 36.1758 15.1598 36.3805C15.4607 36.5851 15.8204 36.6856 16.1838 36.6667H22.8505C23.1999 36.6676 23.5407 36.5586 23.8249 36.3553C24.109 36.1519 24.322 35.8644 24.4338 35.5333L25.4505 32.4833C25.5805 32.0975 25.8472 31.7726 26.2003 31.57C26.5534 31.3673 26.9684 31.3009 27.3671 31.3833L30.5005 32.0167C30.8441 32.0881 31.2015 32.0492 31.5217 31.9055C31.8419 31.7619 32.1087 31.5208 32.2838 31.2167L35.6171 25.45C35.7941 25.1455 35.8701 24.7928 35.8341 24.4425C35.7982 24.0921 35.6522 23.7622 35.4171 23.5L33.1671 21.1ZM30.6838 23.3333L32.0171 24.8333L29.8838 28.5333L27.9171 28.1333C26.7168 27.888 25.4681 28.0919 24.4081 28.7063C23.3482 29.3208 22.5507 30.3031 22.1671 31.4667L21.5338 33.3333H17.2671L16.6671 31.4333C16.2836 30.2697 15.4861 29.2875 14.4262 28.673C13.3662 28.0585 12.1175 27.8546 10.9171 28.1L8.95048 28.5L6.78381 24.8167L8.11714 23.3167C8.93707 22.4 9.39036 21.2132 9.39036 19.9833C9.39036 18.7534 8.93707 17.5667 8.11714 16.65L6.78381 15.15L8.91714 11.4833L10.8838 11.8833C12.0842 12.1287 13.3329 11.9248 14.3928 11.3103C15.4528 10.6958 16.2502 9.71359 16.6338 8.54999L17.2671 6.66665H21.5338L22.1671 8.56665C22.5507 9.73025 23.3482 10.7125 24.4081 11.327C25.4681 11.9415 26.7168 12.1454 27.9171 11.9L29.8838 11.5L32.0171 15.2L30.6838 16.7C29.8731 17.6146 29.4254 18.7945 29.4254 20.0167C29.4254 21.2389 29.8731 22.4187 30.6838 23.3333ZM19.4005 13.3333C18.0819 13.3333 16.793 13.7243 15.6967 14.4569C14.6003 15.1894 13.7459 16.2306 13.2413 17.4488C12.7367 18.6669 12.6047 20.0074 12.8619 21.3006C13.1191 22.5938 13.7541 23.7817 14.6864 24.714C15.6188 25.6464 16.8067 26.2813 18.0999 26.5386C19.3931 26.7958 20.7335 26.6638 21.9517 26.1592C23.1699 25.6546 24.2111 24.8001 24.9436 23.7038C25.6762 22.6075 26.0671 21.3185 26.0671 20C26.0671 18.2319 25.3648 16.5362 24.1145 15.2859C22.8643 14.0357 21.1686 13.3333 19.4005 13.3333ZM19.4005 23.3333C18.7412 23.3333 18.0967 23.1378 17.5486 22.7716C17.0004 22.4053 16.5732 21.8847 16.3209 21.2756C16.0686 20.6665 16.0026 19.9963 16.1312 19.3497C16.2598 18.7031 16.5773 18.1091 17.0435 17.643C17.5096 17.1768 18.1036 16.8593 18.7502 16.7307C19.3968 16.6021 20.067 16.6681 20.6761 16.9204C21.2852 17.1727 21.8058 17.5999 22.172 18.1481C22.5383 18.6963 22.7338 19.3407 22.7338 20C22.7338 20.884 22.3826 21.7319 21.7575 22.357C21.1324 22.9821 20.2845 23.3333 19.4005 23.3333Z" fill="#111111"/>
</g>
</svg>
