<svg width="15" height="10" viewBox="0 0 15 10" fill="none" xmlns="http://www.w3.org/2000/svg">
<path id="Vector" d="M0 0.454545C0 0.333993 0.0474107 0.218377 0.131802 0.133133C0.216193 0.0478896 0.330653 0 0.45 0H13.95C14.0693 0 14.1838 0.0478896 14.2682 0.133133C14.3526 0.218377 14.4 0.333993 14.4 0.454545C14.4 0.575098 14.3526 0.690714 14.2682 0.775958C14.1838 0.861201 14.0693 0.909091 13.95 0.909091H0.45C0.330653 0.909091 0.216193 0.861201 0.131802 0.775958C0.0474107 0.690714 0 0.575098 0 0.454545ZM0 5C0 4.87945 0.0474107 4.76383 0.131802 4.67859C0.216193 4.59334 0.330653 4.54545 0.45 4.54545H13.95C14.0693 4.54545 14.1838 4.59334 14.2682 4.67859C14.3526 4.76383 14.4 4.87945 14.4 5C14.4 5.12055 14.3526 5.23617 14.2682 5.32141C14.1838 5.40666 14.0693 5.45455 13.95 5.45455H0.45C0.330653 5.45455 0.216193 5.40666 0.131802 5.32141C0.0474107 5.23617 0 5.12055 0 5ZM0.45 9.09091C0.330653 9.09091 0.216193 9.1388 0.131802 9.22404C0.0474107 9.30929 0 9.4249 0 9.54545C0 9.66601 0.0474107 9.78162 0.131802 9.86687C0.216193 9.95211 0.330653 10 0.45 10H13.95C14.0693 10 14.1838 9.95211 14.2682 9.86687C14.3526 9.78162 14.4 9.66601 14.4 9.54545C14.4 9.4249 14.3526 9.30929 14.2682 9.22404C14.1838 9.1388 14.0693 9.09091 13.95 9.09091H0.45Z" fill="#111111"/>
</svg>
